<?xml version="1.0" encoding="UTF-8" standalone="no"?>
<svg
   xmlns:dc="http://purl.org/dc/elements/1.1/"
   xmlns:cc="http://creativecommons.org/ns#"
   xmlns:rdf="http://www.w3.org/1999/02/22-rdf-syntax-ns#"
   xmlns:svg="http://www.w3.org/2000/svg"
   xmlns="http://www.w3.org/2000/svg"
   xmlns:sodipodi="http://sodipodi.sourceforge.net/DTD/sodipodi-0.dtd"
   xmlns:inkscape="http://www.inkscape.org/namespaces/inkscape"
   viewBox="0 0 92 26"
   height="26"
   width="92"
   id="svg4225"
   version="1.1"
   inkscape:version="0.92.2 2405546, 2018-03-11"
   sodipodi:docname="spritesheet.svg"
   inkscape:export-filename="/home/fpuga/development/upstream/icarto.Leaflet.draw/src/images/spritesheet-2x.png"
   inkscape:export-xdpi="90"
   inkscape:export-ydpi="90">
  <metadata
     id="metadata4258">
    <rdf:RDF>
      <cc:Work
         rdf:about="">
        <dc:format>image/svg+xml</dc:format>
        <dc:type
           rdf:resource="http://purl.org/dc/dcmitype/StillImage" />
        <dc:title></dc:title>
      </cc:Work>
    </rdf:RDF>
  </metadata>
  <defs
     id="defs4256" />
  <sodipodi:namedview
     pagecolor="#ffffff"
     bordercolor="#666666"
     borderopacity="1"
     objecttolerance="10"
     gridtolerance="10"
     guidetolerance="10"
     inkscape:pageopacity="0"
     inkscape:pageshadow="2"
     inkscape:window-width="2560"
     inkscape:window-height="1386"
     id="namedview4254"
     showgrid="false"
     inkscape:zoom="1.3101852"
     inkscape:cx="236.80603"
     inkscape:cy="7.2419621"
     inkscape:window-x="0"
     inkscape:window-y="54"
     inkscape:window-maximized="0"
     inkscape:current-layer="enabled"
     scale-x="0.8" />
  <g
     id="enabled"
     style="fill:#464646;fill-opacity:1"
     transform="translate(0,-34)">
    <g
       id="polyline"
       style="fill:#464646;fill-opacity:1"
       transform="matrix(0.75,0,0,0.75,-5.5,24.5)">
      <path
         d="m 18,36 v 6 h 6 v -6 z m 4,4 h -2 v -2 h 2 z"
         id="path4229"
         inkscape:connector-curvature="0"
         style="fill:#464646;fill-opacity:1" />
      <path
         d="m 36,18 v 6 h 6 v -6 z m 4,4 h -2 v -2 h 2 z"
         id="path4231"
         inkscape:connector-curvature="0"
         style="fill:#464646;fill-opacity:1" />
      <path
         d="m 23.142,39.145 -2.285,-2.29 16,-15.998 2.285,2.285 z"
         id="path4233"
         inkscape:connector-curvature="0"
         style="fill:#464646;fill-opacity:1" />
    </g>
    <path
       id="polygon"
       d="M 58,42.92375 56.428,54.04625 45.3025,56 40,46.07975 47.84725,38 Z"
       inkscape:connector-curvature="0"
       style="fill:#464646;fill-opacity:1;stroke-width:0.75" />
    <path
       id="marker"
       d="m 79,38 c -3.86633,0 -7,3.15313 -7,7.043478 C 72,48.933826 75.88967,54.434783 79,56 82.11189,54.434783 86,48.933826 86,45.043478 86,41.15313 82.86633,38 79,38 Z m 0,9.782609 c -1.932,0 -3.5,-1.576174 -3.5,-3.521739 0,-1.944 1.568,-3.52174 3.5,-3.52174 1.93277,0 3.5,1.57774 3.5,3.52174 0,1.945565 -1.56723,3.521739 -3.5,3.521739 z"
       inkscape:connector-curvature="0"
       style="fill:#464646;fill-opacity:1;stroke-width:0.78018939" />
  </g>
</svg>
